<?xml version="1.0" encoding="utf-8"?>
<!-- Generator: Adobe Illustrator 21.0.2, SVG Export Plug-In . SVG Version: 6.00 Build 0)  -->
<svg version="1.1" id="Layer_1" xmlns="http://www.w3.org/2000/svg" xmlns:xlink="http://www.w3.org/1999/xlink" x="0px" y="0px"
	 viewBox="0 0 100 36" style="enable-background:new 0 0 100 36;" xml:space="preserve">
<g>
	<path d="M71,18.6c1.4-0.6,4.8-1.1,4.8-5.9c0-6-5.4-7.4-7.3-7.4H50.4v19l2.7,4.7h-1.7L36.4,1.5l-7.5,15.9l-0.2,7.2h6.9l2.5,4.2H25.8
		c1.1-2.2,1.8-5,1.8-8.6c0-11.6-7.1-15.1-13.8-15.1H0v30.7h13.8c4.3,0,8.6-1.5,11.2-5.4h14l3.2,5.4h12.9l-3-5.4h1.8l3.1,5.4h11.5
		c1.9,0,8-2.3,8.4-7.8C77.1,21.4,74.7,19.8,71,18.6z M24.4,30.4H6.9v-1.5h17.5V30.4L24.4,30.4L24.4,30.4z M50.9,30.4H39.4v-1.5h11.5
		V30.4L50.9,30.4L50.9,30.4z M67.7,30.4H54.4v-1.5h13.4V30.4z"/>
	<polygon points="92.2,8.1 92.2,0 86.4,0 86.4,8.1 78.6,8.1 78.6,13.8 86.4,13.8 86.4,21.9 92.2,21.9 92.2,13.8 100,13.8 100,8.1 	
		"/>
</g>
</svg>
